# File created by Blade
# Date/Time:  Fri Jan 16 19:41:12 2015
# Frame Rate: 120.000 fps
#------------------------------------------------------
:FULLY-SPECIFIED
:DEGREES
1584
root 18.597325 35.505421 -22.420151 9.619406 4.820919 -0.888942
Spine -19.271624 -1.501419 -0.445270
Head 12.172079 -4.413928 0.981584
LeftShoulder -12.987531 -28.059398 14.932314
LeftArm -4.788664 8.538064 -14.843353
LeftForeArm 11.455464 -0.000000 5.881446
LeftHand -3.606702 -0.000000 10.503379
LeftHandThumb1 -26.253704 0.000000 33.147579
RightShoulder -9.508175 -4.628165 -7.065240
RightArm 1.086561 32.963342 15.879066
RightForeArm -31.833015 -0.000000 16.688342
RightHand -8.751312 -0.000000 -10.111605
RightHandThumb1 -24.326973 -0.000000 -32.862282
LeftUpLeg -1.325407 5.067278 1.347342
LeftLeg -6.767427 -0.000000 0.000000
LeftFoot -19.744465 26.620237 -12.908540
LeftToeBase 24.962504 -0.000000 -0.000000
RightUpLeg -1.435445 -10.948328 0.272284
RightLeg -4.176394 -0.000000 0.000000
RightFoot -21.572232 -28.810817 15.877634
RightToeBase 23.529268 -0.000000 -0.000000
1585
root 18.599992 35.506033 -22.439483 9.613793 4.789882 -0.887426
Spine -19.201546 -1.443869 -0.454088
Head 12.261747 -4.371811 0.969346
LeftShoulder -12.944519 -27.891043 14.563686
LeftArm -4.985616 8.571619 -15.305298
LeftForeArm 11.666873 -0.000000 6.520391
LeftHand -3.766661 -0.000000 11.064512
LeftHandThumb1 -26.253704 0.000000 33.147579
RightShoulder -9.430259 -4.844432 -6.864032
RightArm 0.830251 33.340695 16.522209
RightForeArm -31.504170 -0.000000 17.640580
RightHand -8.910320 -0.000000 -10.280658
RightHandThumb1 -24.326973 -0.000000 -32.862282
LeftUpLeg -1.340162 5.123566 1.329177
LeftLeg -6.779299 -0.000000 0.000000
LeftFoot -19.708936 26.603316 -12.880235
LeftToeBase 24.961539 -0.000000 -0.000000
RightUpLeg -1.462686 -10.948762 0.273498
RightLeg -4.194614 -0.000000 0.000000
RightFoot -21.521960 -28.864455 15.796546
RightToeBase 23.592509 -0.000000 -0.000000
1586
root 18.604639 35.506630 -22.458624 9.583875 4.761300 -0.886579
Spine -19.108794 -1.428898 -0.439876
Head 12.378038 -4.244719 0.965655
LeftShoulder -12.914009 -27.690100 14.196480
LeftArm -5.255310 8.410951 -15.788213
LeftForeArm 12.125749 -0.000000 7.180379
LeftHand -3.914372 -0.000000 11.534696
LeftHandThumb1 -26.253704 0.000000 33.147579
RightShoulder -9.328313 -5.069108 -6.683909
RightArm 0.665020 33.733381 17.298305
RightForeArm -31.349422 0.000000 18.591946
RightHand -9.027209 -0.000000 -10.677679
RightHandThumb1 -24.326973 -0.000000 -32.862282
LeftUpLeg -1.328392 5.144112 1.312776
LeftLeg -6.797653 -0.000000 0.000000
LeftFoot -19.684758 26.622241 -12.868743
LeftToeBase 24.973729 -0.000000 -0.000000
RightUpLeg -1.465324 -10.940744 0.260896
RightLeg -4.196397 -0.000000 0.000000
RightFoot -21.489826 -28.867152 15.772633
RightToeBase 23.799277 -0.000000 -0.000000
1587
root 18.607711 35.507024 -22.477327 9.545061 4.743554 -0.884884
Spine -18.991750 -1.427843 -0.428414
Head 12.441150 -4.130117 0.969089
LeftShoulder -12.932313 -27.483597 13.858843
LeftArm -5.475631 8.433109 -16.384226
LeftForeArm 11.894343 -0.000000 7.932828
LeftHand -4.329241 -0.000000 11.981310
LeftHandThumb1 -26.253704 0.000000 33.147579
RightShoulder -9.290406 -5.348682 -6.457888
RightArm 0.650274 34.054119 18.112058
RightForeArm -31.364790 -0.000000 19.418094
RightHand -9.258514 0.000000 -11.051214
RightHandThumb1 -24.326973 -0.000000 -32.862282
LeftUpLeg -1.311662 5.172591 1.300136
LeftLeg -6.808186 -0.000000 0.000000
LeftFoot -19.652467 26.625585 -12.839362
LeftToeBase 24.935686 -0.000000 -0.000000
RightUpLeg -1.458487 -10.960460 0.251102
RightLeg -4.197857 -0.000000 0.000000
RightFoot -21.448578 -28.900350 15.642566
RightToeBase 23.934722 -0.000000 -0.000000
1588
root 18.614847 35.507921 -22.497890 9.504637 4.717283 -0.880480
Spine -18.869431 -1.399896 -0.402614
Head 12.517274 -4.038248 0.930411
LeftShoulder -12.892867 -27.356583 13.489051
LeftArm -5.844671 8.414024 -16.969574
LeftForeArm 12.042359 -0.000000 8.705105
LeftHand -4.480898 -0.000000 12.190910
LeftHandThumb1 -26.253704 0.000000 33.147579
RightShoulder -9.263452 -5.626596 -6.268569
RightArm 0.632363 34.379763 19.038064
RightForeArm -31.534743 -0.000000 20.379689
RightHand -9.443919 0.000000 -11.418475
RightHandThumb1 -24.326973 -0.000000 -32.862282
LeftUpLeg -1.302625 5.200692 1.275066
LeftLeg -6.803702 -0.000000 0.000000
LeftFoot -19.632223 26.637358 -12.806098
LeftToeBase 24.962384 -0.000000 -0.000000
RightUpLeg -1.454186 -10.954784 0.228526
RightLeg -4.200939 -0.000000 0.000000
RightFoot -21.416557 -28.873819 15.692151
RightToeBase 23.844047 -0.000000 -0.000000
1589
root 18.620793 35.508612 -22.517659 9.467961 4.689840 -0.867286
Spine -18.756544 -1.374373 -0.404499
Head 12.596548 -3.948505 0.938077
LeftShoulder -12.868069 -27.210855 13.154022
LeftArm -6.190492 8.272808 -17.609764
LeftForeArm 12.354483 -0.000000 9.464727
LeftHand -4.599675 -0.000000 12.219198
LeftHandThumb1 -26.253704 0.000000 33.147579
RightShoulder -9.210762 -5.750180 -6.097135
RightArm 0.542501 34.630835 19.981443
RightForeArm -31.905033 -0.000000 21.294302
RightHand -9.654704 -0.000000 -11.872627
RightHandThumb1 -24.326973 -0.000000 -32.862282
LeftUpLeg -1.292449 5.229587 1.243831
LeftLeg -6.807800 -0.000000 0.000000
LeftFoot -19.607014 26.649081 -12.799884
LeftToeBase 24.936406 -0.000000 -0.000000
RightUpLeg -1.447228 -10.948033 0.200309
RightLeg -4.211810 -0.000000 0.000000
RightFoot -21.375147 -28.877705 15.643614
RightToeBase 23.865990 -0.000000 -0.000000
1590
root 18.627474 35.509445 -22.536576 9.429816 4.618512 -0.841924
Spine -18.648678 -1.309371 -0.429926
Head 12.677824 -3.868698 0.947656
LeftShoulder -12.848119 -26.965845 12.747383
LeftArm -6.431104 8.248071 -18.228050
LeftForeArm 12.413928 -0.000000 10.139179
LeftHand -4.764780 -0.000000 12.230947
LeftHandThumb1 -26.253704 0.000000 33.147579
RightShoulder -9.137816 -5.870628 -5.891323
RightArm 0.409478 34.691575 20.891984
RightForeArm -32.151439 -0.000000 22.309845
RightHand -10.174857 -0.000000 -12.212618
RightHandThumb1 -24.326973 -0.000000 -32.862282
LeftUpLeg -1.269920 5.321343 1.191924
LeftLeg -6.816200 -0.000000 0.000000
LeftFoot -19.579313 26.633090 -12.790737
LeftToeBase 24.948980 -0.000000 -0.000000
RightUpLeg -1.449929 -10.890722 0.150161
RightLeg -4.203146 -0.000000 0.000000
RightFoot -21.338703 -28.888245 15.584015
RightToeBase 23.828818 -0.000000 -0.000000
1591
root 18.630751 35.510655 -22.558686 9.397479 4.651633 -0.852192
Spine -18.539305 -1.337092 -0.391141
Head 12.757496 -3.784888 0.945974
LeftShoulder -12.809864 -26.778442 12.320254
LeftArm -6.730284 8.130679 -18.831602
LeftForeArm 12.518697 -0.000000 10.795122
LeftHand -4.710314 -0.000000 11.993706
LeftHandThumb1 -26.253704 0.000000 33.147579
RightShoulder -9.016365 -5.925438 -5.687765
RightArm 0.188313 34.850702 21.737605
RightForeArm -32.625734 -0.000000 23.131641
RightHand -10.187250 -0.000000 -12.606150
RightHandThumb1 -24.326973 -0.000000 -32.862282
LeftUpLeg -1.297560 5.310123 1.197853
LeftLeg -6.781522 -0.000000 0.000000
LeftFoot -19.569203 26.627926 -12.741249
LeftToeBase 24.998598 -0.000000 -0.000000
RightUpLeg -1.446576 -10.953145 0.162417
RightLeg -4.218519 -0.000000 0.000000
RightFoot -21.290097 -28.894450 15.557689
RightToeBase 23.881359 -0.000000 -0.000000
1592
root 18.636642 35.512096 -22.576815 9.324055 4.622450 -0.836333
Spine -18.393033 -1.285603 -0.402380
Head 12.852308 -3.717160 0.949128
LeftShoulder -12.706372 -26.630450 11.851034
LeftArm -7.092145 8.214991 -19.461034
LeftForeArm 12.520928 -0.000000 11.540741
LeftHand -5.055557 -0.000000 11.836166
LeftHandThumb1 -26.253704 0.000000 33.147579
RightShoulder -8.980308 -6.138504 -5.426785
RightArm 0.186735 35.026863 22.694620
RightForeArm -32.881564 0.000000 23.942154
RightHand -10.392682 -0.000000 -12.739132
RightHandThumb1 -24.326973 -0.000000 -32.862282
LeftUpLeg -1.239287 5.332725 1.170562
LeftLeg -6.799318 -0.000000 0.000000
LeftFoot -19.531758 26.631108 -12.746461
LeftToeBase 24.977990 -0.000000 -0.000000
RightUpLeg -1.401886 -10.943287 0.124124
RightLeg -4.223399 -0.000000 0.000000
RightFoot -21.259790 -28.898514 15.524781
RightToeBase 23.893928 -0.000000 -0.000000
1593
root 18.642708 35.513537 -22.598562 9.282400 4.601978 -0.828478
Spine -18.270336 -1.225948 -0.405929
Head 12.912245 -3.666074 0.954775
LeftShoulder -12.646503 -26.416040 11.384664
LeftArm -7.279698 8.185002 -20.141228
LeftForeArm 12.665833 -0.000000 12.067923
LeftHand -5.376405 -0.000000 11.481632
LeftHandThumb1 -26.253704 0.000000 33.147579
RightShoulder -8.984411 -6.271739 -5.120898
RightArm 0.173335 35.056511 23.567415
RightForeArm -33.076963 -0.000000 24.669559
RightHand -10.336035 -0.000000 -12.996539
RightHandThumb1 -24.326973 -0.000000 -32.862282
LeftUpLeg -1.232551 5.343568 1.148849
LeftLeg -6.793188 -0.000000 0.000000
LeftFoot -19.500997 26.639127 -12.728309
LeftToeBase 24.969750 -0.000000 -0.000000
RightUpLeg -1.400729 -10.920277 0.100381
RightLeg -4.219266 -0.000000 0.000000
RightFoot -21.226604 -28.927631 15.498095
RightToeBase 23.866356 -0.000000 -0.000000
